REM DIRINDEX 1\2\6,1\2\7,1\2\8,1\2\9,1\3\10,1\3\11,1\4\12,1\4\13,1\4\14,1\5\15,1\5\16,1\5\17
REM DIRNAME cjc020,folder01,folder02,folder03,folder04,folder05,folder06,folder07,folder08,folder09,folder10,folder11,folder12,folder13,folder14,folder15,folder16
TITLE ""
FILE "1900_2_sec03_0215_0230.mp3" MP3
  TRACK 01 AUDIO
    TITLE "0:"
    INDEX 01 00:00:00
  TRACK 02 AUDIO
    TITLE "13:cjc020_2523"
    INDEX 01 00:00:17
  TRACK 03 AUDIO
    TITLE "0:"
    INDEX 01 00:01:19
  TRACK 04 AUDIO
    TITLE "14:cjc020_2524"
    INDEX 01 00:01:24
  TRACK 05 AUDIO
    TITLE "0:"
    INDEX 01 00:04:40
  TRACK 06 AUDIO
    TITLE "13:cjc020_2525"
    INDEX 01 00:05:18
  TRACK 07 AUDIO
    TITLE "0:"
    INDEX 01 00:06:24
  TRACK 08 AUDIO
    TITLE "14:cjc020_2526"
    INDEX 01 00:06:30
  TRACK 09 AUDIO
    TITLE "0:"
    INDEX 01 00:07:35
  TRACK 10 AUDIO
    TITLE "13:cjc020_2527"
    INDEX 01 00:08:15
  TRACK 11 AUDIO
    TITLE "0:"
    INDEX 01 00:09:36
  TRACK 12 AUDIO
    TITLE "14:cjc020_2528"
    INDEX 01 00:09:38
  TRACK 13 AUDIO
    TITLE "0:"
    INDEX 01 00:11:40
  TRACK 14 AUDIO
    TITLE "13:cjc020_2529"
    INDEX 01 00:12:22
  TRACK 15 AUDIO
    TITLE "0:"
    INDEX 01 00:13:37
  TRACK 16 AUDIO
    TITLE "14:cjc020_2530"
    INDEX 01 00:13:39
  TRACK 17 AUDIO
    TITLE "0:"
    INDEX 01 00:16:61
  TRACK 18 AUDIO
    TITLE "13:cjc020_2531"
    INDEX 01 00:17:39
  TRACK 19 AUDIO
    TITLE "0:"
    INDEX 01 00:18:60
  TRACK 20 AUDIO
    TITLE "14:cjc020_2532"
    INDEX 01 00:18:62
  TRACK 21 AUDIO
    TITLE "0:"
    INDEX 01 00:21:17
  TRACK 22 AUDIO
    TITLE "13:cjc020_2533"
    INDEX 01 00:21:72
  TRACK 23 AUDIO
    TITLE "0:"
    INDEX 01 00:22:74
  TRACK 24 AUDIO
    TITLE "14:cjc020_2534"
    INDEX 01 00:23:04
  TRACK 25 AUDIO
    TITLE "0:"
    INDEX 01 00:24:41
  TRACK 26 AUDIO
    TITLE "13:cjc020_2535"
    INDEX 01 00:25:17
  TRACK 27 AUDIO
    TITLE "0:"
    INDEX 01 00:26:30
  TRACK 28 AUDIO
    TITLE "14:cjc020_2536"
    INDEX 01 00:26:34
  TRACK 29 AUDIO
    TITLE "0:"
    INDEX 01 00:30:28
  TRACK 30 AUDIO
    TITLE "13:cjc020_2537"
    INDEX 01 00:31:06
  TRACK 31 AUDIO
    TITLE "0:"
    INDEX 01 00:32:13
  TRACK 32 AUDIO
    TITLE "14:cjc020_2538"
    INDEX 01 00:32:15
  TRACK 33 AUDIO
    TITLE "0:"
    INDEX 01 00:34:26
  TRACK 34 AUDIO
    TITLE "13:cjc020_2539"
    INDEX 01 00:35:06
  TRACK 35 AUDIO
    TITLE "0:"
    INDEX 01 00:36:15
  TRACK 36 AUDIO
    TITLE "14:cjc020_2540"
    INDEX 01 00:36:19
  TRACK 37 AUDIO
    TITLE "0:"
    INDEX 01 00:38:73
  TRACK 38 AUDIO
    TITLE "13:cjc020_2541"
    INDEX 01 00:39:56
  TRACK 39 AUDIO
    TITLE "0:"
    INDEX 01 00:40:60
  TRACK 40 AUDIO
    TITLE "14:cjc020_2542"
    INDEX 01 00:40:64
  TRACK 41 AUDIO
    TITLE "0:"
    INDEX 01 00:42:72
  TRACK 42 AUDIO
    TITLE "13:cjc020_2543"
    INDEX 01 00:43:54
  TRACK 43 AUDIO
    TITLE "0:"
    INDEX 01 00:44:61
  TRACK 44 AUDIO
    TITLE "14:cjc020_2544"
    INDEX 01 00:44:67
  TRACK 45 AUDIO
    TITLE "0:"
    INDEX 01 00:46:09
  TRACK 46 AUDIO
    TITLE "13:cjc020_2545"
    INDEX 01 00:46:62
  TRACK 47 AUDIO
    TITLE "0:"
    INDEX 01 00:47:64
  TRACK 48 AUDIO
    TITLE "14:cjc020_2546"
    INDEX 01 00:47:72
  TRACK 49 AUDIO
    TITLE "0:"
    INDEX 01 00:51:58
  TRACK 50 AUDIO
    TITLE "13:cjc020_2547"
    INDEX 01 00:52:37
  TRACK 51 AUDIO
    TITLE "0:"
    INDEX 01 00:53:62
  TRACK 52 AUDIO
    TITLE "14:cjc020_2548"
    INDEX 01 00:53:64
  TRACK 53 AUDIO
    TITLE "0:"
    INDEX 01 00:56:25
  TRACK 54 AUDIO
    TITLE "13:cjc020_2549"
    INDEX 01 00:57:05
  TRACK 55 AUDIO
    TITLE "0:"
    INDEX 01 00:58:03
  TRACK 56 AUDIO
    TITLE "14:cjc020_2550"
    INDEX 01 00:58:07
  TRACK 57 AUDIO
    TITLE "0:"
    INDEX 01 01:01:05
  TRACK 58 AUDIO
    TITLE "13:cjc020_2551"
    INDEX 01 01:01:60
  TRACK 59 AUDIO
    TITLE "0:"
    INDEX 01 01:02:73
  TRACK 60 AUDIO
    TITLE "14:cjc020_2552"
    INDEX 01 01:03:00
  TRACK 61 AUDIO
    TITLE "0:"
    INDEX 01 01:06:24
  TRACK 62 AUDIO
    TITLE "13:cjc020_2553"
    INDEX 01 01:07:02
  TRACK 63 AUDIO
    TITLE "0:"
    INDEX 01 01:08:11
  TRACK 64 AUDIO
    TITLE "14:cjc020_2554"
    INDEX 01 01:08:13
  TRACK 65 AUDIO
    TITLE "0:"
    INDEX 01 01:10:24
